<svg width="138" height="113" viewBox="0 0 138 113" fill="none" xmlns="http://www.w3.org/2000/svg">
<path d="M68.0556 0L1.17928 36.478C0.238412 36.9912 0.238412 38.3422 1.17928 38.8554L67.4071 74.9796C67.8113 75.2001 68.2998 75.2001 68.704 74.9796L122.553 45.6019C123.455 45.1097 124.556 45.7627 124.556 46.7906V86.5349C124.556 87.2827 125.162 87.8889 125.91 87.8889H135.757C136.505 87.8889 137.111 87.2827 137.111 86.5349V37.6667M26.1138 65.0007C25.2115 64.5083 24.1111 65.1613 24.1111 66.1892V88.2153C24.1111 88.7107 24.3817 89.1665 24.8165 89.4038L67.4069 112.646C67.8112 112.867 68.2999 112.867 68.7042 112.646L111.295 89.4038C111.729 89.1665 112 88.7107 112 88.2153V66.1892C112 65.1613 110.9 64.5083 109.997 65.0007L68.7042 87.5349C68.2999 87.7555 67.8112 87.7555 67.4069 87.5349L26.1138 65.0007Z" fill="black"/>
<path d="M68.0556 0L1.17928 36.478C0.238412 36.9912 0.238412 38.3422 1.17928 38.8554L67.4071 74.9796C67.8113 75.2001 68.2998 75.2001 68.704 74.9796L122.553 45.6019C123.455 45.1097 124.556 45.7627 124.556 46.7906V86.5349C124.556 87.2827 125.162 87.8889 125.91 87.8889H135.757C136.505 87.8889 137.111 87.2827 137.111 86.5349V37.6667M26.1138 65.0007C25.2115 64.5083 24.1111 65.1613 24.1111 66.1892V88.2153C24.1111 88.7107 24.3817 89.1665 24.8165 89.4038L67.4069 112.646C67.8112 112.867 68.2999 112.867 68.7042 112.646L111.295 89.4038C111.729 89.1665 112 88.7107 112 88.2153V66.1892C112 65.1613 110.9 64.5083 109.997 65.0007L68.7042 87.5349C68.2999 87.7555 67.8112 87.7555 67.4069 87.5349L26.1138 65.0007Z" fill="url(#paint0_linear_158_223)"/>
<defs>
<linearGradient id="paint0_linear_158_223" x1="-1" y1="56.5" x2="137.111" y2="56.5" gradientUnits="userSpaceOnUse">
<stop stop-color="#F9F9FF"/>
<stop offset="1" stop-color="#97E8FE"/>
</linearGradient>
</defs>
</svg>
