<svg width="560" height="128" viewBox="0 0 560 128" fill="none" xmlns="http://www.w3.org/2000/svg">
<path d="M150.331 31.4146C147.913 31.4146 146.135 31.308 144.998 31.0946C143.86 30.8813 143.291 30.6324 143.291 30.3479L145.424 25.7077C146.242 25.85 148.269 25.9922 151.504 26.1344C154.776 26.2411 159.256 26.2944 164.945 26.2944H165.958C167.487 26.2944 168.572 26.0278 169.212 25.4944C169.852 24.9255 170.172 23.9832 170.172 22.6676V21.6009C170.172 20.3564 169.905 19.4675 169.372 18.9341C168.874 18.4008 167.736 18.1341 165.958 18.1341H153.585C149.993 18.1341 147.38 17.4763 145.744 16.1607C144.109 14.8095 143.291 12.6228 143.291 9.60042V8.74705C143.291 7.18254 143.575 5.74249 144.144 4.42688C144.749 3.11127 145.762 2.06234 147.184 1.28009C148.607 0.462275 150.562 0.0533702 153.051 0.0533702H167.558C169.976 0.0533702 171.932 0.177818 173.425 0.426716C174.919 0.675616 175.665 0.942292 175.665 1.22675L174.599 5.70693C173.674 5.60026 171.576 5.49359 168.305 5.38691C165.034 5.24469 160.643 5.17357 155.131 5.17357L154.545 5.12024C152.909 5.12024 151.807 5.45803 151.238 6.13361C150.669 6.77364 150.367 7.59145 150.331 8.58704V9.49375C150.331 10.6671 150.651 11.5561 151.291 12.1605C151.967 12.7294 153.069 13.0139 154.598 13.0139H166.438C168.714 13.0139 170.652 13.245 172.252 13.7073C173.852 14.1695 175.079 15.0229 175.932 16.2674C176.785 17.4763 177.212 19.2719 177.212 21.6542V22.5076C177.212 25.1744 176.519 27.3256 175.132 28.9612C173.781 30.5968 171.416 31.4146 168.038 31.4146H150.331Z" fill="white"/>
<path d="M195.392 31.4146L195.339 5.12024H181.471V3.05176e-05H216.353V5.12024H202.432V31.4146H195.392Z" fill="white"/>
<path d="M211.031 31.4146L226.658 0.0533702H237.165L252.739 31.4146H244.526L241.379 24.641H222.285L218.818 31.4146H211.031ZM224.205 19.4142H239.405L232.099 4.85356H231.565L224.205 19.4142Z" fill="white"/>
<path d="M265.204 31.4146C262.679 31.4146 260.706 31.0591 259.283 30.3479C257.861 29.6368 256.866 28.5701 256.297 27.1478C255.728 25.7255 255.443 23.9654 255.443 21.8676V9.97377C255.443 6.5603 256.208 4.05353 257.737 2.45346C259.266 0.817841 261.755 3.05176e-05 265.204 3.05176e-05H281.258C283.711 3.05176e-05 285.578 0.142259 286.858 0.426716C288.173 0.675616 288.831 0.942292 288.831 1.22675L287.765 5.65359C287.16 5.54692 285.364 5.44025 282.378 5.33358C279.426 5.19135 275.124 5.12024 269.47 5.12024H266.75C263.906 5.12024 262.484 6.38251 262.484 8.90706V22.5076C262.484 23.7165 262.786 24.6588 263.39 25.3344C264.03 25.9744 265.15 26.2944 266.75 26.2944H268.937C274.84 26.2944 279.409 26.2411 282.644 26.1344C285.916 25.9922 287.942 25.85 288.725 25.7077L290.911 29.2279C290.911 29.4057 290.609 29.6723 290.005 30.0279C289.436 30.3835 288.369 30.7035 286.804 30.988C285.24 31.2724 282.982 31.4146 280.031 31.4146H265.204Z" fill="white"/>
<path d="M329.68 31.948C327.938 31.948 326.426 31.5924 325.146 30.8813C323.866 30.1701 322.604 29.2101 321.36 28.0012C320.008 26.5789 318.373 24.9433 316.453 23.0943C315.564 22.1698 314.657 21.4053 313.733 20.8009C312.808 20.1964 311.759 19.7342 310.586 19.4142C309.448 19.0941 308.026 18.9341 306.319 18.9341H303.812V31.4146H296.772V4.32021L296.239 0.0533702H303.812V13.7073H306.799C307.51 13.7073 308.097 13.6184 308.559 13.4406C309.021 13.2628 309.448 12.9783 309.839 12.5872C310.835 11.5916 311.973 10.3471 313.253 8.85373C314.533 7.36033 315.777 5.83138 316.986 4.26687C318.231 2.66681 319.297 1.26231 320.186 0.0533702H328.827L326.64 3.2535C325.644 4.28465 324.578 5.40469 323.44 6.61363C322.302 7.82257 321.182 9.01373 320.08 10.1871C318.977 11.3249 317.982 12.3383 317.093 13.2272C316.204 14.0806 315.546 14.7028 315.119 15.094C316.079 15.414 316.951 15.8229 317.733 16.3207C318.551 16.8185 319.546 17.5474 320.72 18.5074C321.609 19.2186 322.462 19.9475 323.28 20.6942C324.133 21.4409 325.111 22.3298 326.213 23.361C327.458 24.4988 328.631 25.3344 329.733 25.8677C330.836 26.4011 331.76 26.7389 332.507 26.8811C333.289 27.0233 333.787 27.0945 334 27.0945L332.933 31.4146C332.827 31.5213 332.507 31.628 331.973 31.7347C331.44 31.8769 330.676 31.948 329.68 31.948Z" fill="white"/>
<path d="M0.532799 31.3819V4.31567L0 0.0532824H33.2467V5.16815H7.56575V12.947H27.4924V18.2217H7.56575V31.3819H0.532799Z" fill="white"/>
<path d="M38.5551 31.3819V0.0532824H45.588V31.3819H38.5551Z" fill="white"/>
<path d="M88.1583 31.9147C86.7375 31.9147 85.3344 31.7015 83.9492 31.2753C82.5994 30.8135 81.0543 29.7124 79.3138 27.9719L75.4777 24.1358C73.9148 22.5374 72.1921 21.3652 70.3095 20.6193C68.4625 19.8734 66.1359 19.5004 63.3298 19.5004H61.6782V31.3819H54.6452V4.31567L54.1124 0H77.7154C79.9887 0 81.7647 0.30192 83.0434 0.905759C84.3576 1.5096 85.3167 2.3088 85.9205 3.30336C86.5599 4.26239 86.9684 5.29247 87.146 6.39359C87.3236 7.49471 87.4124 8.54255 87.4124 9.5371V10.5494C87.4124 11.3309 87.3058 12.2011 87.0927 13.1601C86.8796 14.1192 86.4711 15.0605 85.8672 15.984C85.2634 16.9075 84.3932 17.6889 83.2565 18.3283C82.1554 18.9676 80.6991 19.3406 78.8876 19.4472C79.3493 19.6958 79.9354 20.0865 80.6458 20.6193C81.3562 21.1166 82.0844 21.6672 82.8303 22.271C83.6117 22.8748 84.3221 23.4254 84.9615 23.9227C85.6008 24.42 86.0981 24.7752 86.4533 24.9883C87.732 25.7342 88.8687 26.2492 89.8632 26.5334C90.8578 26.8176 91.6747 26.9774 92.3141 27.0129C92.9535 27.0484 93.3264 27.0662 93.433 27.0662L92.3674 31.3819C92.0477 31.4884 91.5149 31.595 90.769 31.7015C90.0231 31.8436 89.1528 31.9147 88.1583 31.9147ZM69.6701 14.652C71.0199 14.652 72.2276 14.6342 73.2932 14.5987C74.3588 14.5277 75.3178 14.4566 76.1703 14.3856C77.7332 14.208 78.8165 13.7817 79.4204 13.1069C80.0597 12.3965 80.3794 11.4907 80.3794 10.3896V9.16414C80.3794 8.02751 80.0775 7.06847 79.4736 6.28703C78.8698 5.50559 77.7864 5.11487 76.2236 5.11487H61.6782V14.3856C63.241 14.4921 64.6796 14.5632 65.9938 14.5987C67.3081 14.6342 68.5335 14.652 69.6701 14.652Z" fill="white"/>
<path d="M107.452 31.3819C104.966 31.3819 103.012 31.0267 101.591 30.3163C100.171 29.6059 99.1583 28.5403 98.5545 27.1195C97.9862 25.6987 97.702 23.9404 97.702 21.8448V9.5371C97.702 7.47695 97.9862 5.75423 98.5545 4.36895C99.1228 2.94815 100.117 1.88256 101.538 1.17216C102.959 0.426241 104.93 0.0532824 107.452 0.0532824H123.01C125.496 0.0532824 127.432 0.426241 128.818 1.17216C130.238 1.88256 131.233 2.94815 131.801 4.36895C132.405 5.75423 132.707 7.47695 132.707 9.5371V21.8448C132.707 24.9705 132.014 27.3503 130.629 28.9843C129.244 30.5827 126.704 31.3819 123.01 31.3819H107.452ZM108.997 26.267H121.518C122.832 26.267 123.845 25.9296 124.555 25.2547C125.301 24.5798 125.674 23.6563 125.674 22.4841V8.89774C125.674 7.86767 125.301 6.99743 124.555 6.28703C123.809 5.54111 122.797 5.16815 121.518 5.16815H108.997C107.719 5.16815 106.689 5.50559 105.907 6.18047C105.126 6.85535 104.735 7.76111 104.735 8.89774V22.4841C104.735 23.6918 105.108 24.6331 105.854 25.308C106.635 25.9473 107.683 26.267 108.997 26.267Z" fill="white"/>
<path d="M20.16 98.8081C16.6835 98.8081 13.5834 98.0196 10.8595 96.4427C8.17152 94.8657 6.05696 92.5899 4.51584 89.6152C3.01056 86.6404 2.25792 83.0744 2.25792 78.9169C2.25792 74.867 2.99264 71.3547 4.46208 68.38C5.93152 65.3694 8.02816 63.0398 10.752 61.3912C13.4758 59.7425 16.6656 58.9182 20.3213 58.9182C25.303 58.9182 29.1738 60.1547 31.9334 62.6276C34.729 65.0648 36.521 68.5592 37.3094 73.1108L28.8154 73.4334C28.3853 71.0321 27.4534 69.1684 26.0198 67.8424C24.5862 66.4804 22.6867 65.7995 20.3213 65.7995C18.2784 65.7995 16.5402 66.3371 15.1066 67.4123C13.673 68.4875 12.5798 70.0107 11.8272 71.9819C11.0746 73.9531 10.6982 76.2648 10.6982 78.9169C10.6982 81.6049 11.0746 83.9345 11.8272 85.9057C12.6157 87.8411 13.7267 89.3284 15.1603 90.3678C16.5939 91.4072 18.2963 91.9268 20.2675 91.9268C22.848 91.9268 24.8371 91.21 26.2349 89.7764C27.6685 88.307 28.5645 86.282 28.9229 83.7016L37.4707 84.0241C36.969 87.1422 35.9834 89.7944 34.5139 91.9806C33.0445 94.1668 31.1091 95.8513 28.7078 97.034C26.3424 98.2168 23.4931 98.8081 20.16 98.8081ZM51.1035 98.5931C48.1288 98.5931 45.6917 97.9121 43.7921 96.5502C41.9285 95.1524 40.9966 93.2171 40.9966 90.7441C40.9966 88.1995 41.7851 86.2462 43.3621 84.8843C44.9749 83.4865 47.3403 82.4651 50.4584 81.82L59.7589 79.9921C59.7589 78.1284 59.3288 76.7307 58.4686 75.7988C57.6443 74.8312 56.4437 74.3473 54.8667 74.3473C53.3256 74.3473 52.1249 74.7057 51.2648 75.4225C50.4046 76.1035 49.8491 77.1249 49.5982 78.4868L41.4805 78.1105C42.0181 74.9566 43.4337 72.5732 45.7275 70.9604C48.0571 69.3118 51.1035 68.4875 54.8667 68.4875C59.1675 68.4875 62.3931 69.5089 64.5435 71.5518C66.7297 73.5947 67.8229 76.5873 67.8229 80.5297V90.3678C67.8229 91.1921 67.9483 91.7476 68.1992 92.0344C68.4859 92.2852 68.8981 92.4107 69.4357 92.4107H70.2421V97.948C69.9912 98.0196 69.579 98.0913 69.0056 98.163C68.468 98.2347 67.9304 98.2705 67.3928 98.2705C66.2459 98.2705 65.1707 98.0734 64.1672 97.6792C63.1995 97.2849 62.411 96.6219 61.8017 95.69C61.1925 94.7224 60.8878 93.3604 60.8878 91.6043L61.5867 92.1419C61.2283 93.4321 60.5832 94.5611 59.6513 95.5288C58.7553 96.4964 57.5726 97.2491 56.1032 97.7867C54.6696 98.3243 53.003 98.5931 51.1035 98.5931ZM53.0389 93.0558C54.3649 93.0558 55.5297 92.8049 56.5333 92.3032C57.5368 91.7656 58.3253 90.995 58.8987 89.9915C59.4721 88.988 59.7589 87.8052 59.7589 86.4433V85.0456L53.2001 86.4433C51.9099 86.6942 50.9243 87.1243 50.2433 87.7336C49.5982 88.307 49.2757 89.0596 49.2757 89.9915C49.2757 90.9592 49.5982 91.7118 50.2433 92.2494C50.8885 92.787 51.8203 93.0558 53.0389 93.0558ZM74.4757 97.948V69.1326H81.7333L82.0021 76.0676L81.2494 75.7451C81.6437 74.204 82.235 72.8958 83.0235 71.8206C83.8478 70.7454 84.8334 69.9211 85.9803 69.3476C87.1272 68.7742 88.3816 68.4875 89.7435 68.4875C92.1448 68.4875 94.0801 69.1864 95.5496 70.5841C97.0549 71.9819 98.0225 73.8635 98.4526 76.2289L97.4312 76.2827C97.7537 74.5982 98.3093 73.1825 99.0977 72.0356C99.9221 70.8529 100.926 69.9748 102.108 69.4014C103.291 68.7921 104.617 68.4875 106.087 68.4875C108.094 68.4875 109.814 68.8996 111.247 69.724C112.681 70.5483 113.792 71.7848 114.581 73.4334C115.369 75.0462 115.763 77.0353 115.763 79.4008V97.948H107.699V81.6587C107.699 79.4008 107.359 77.7163 106.678 76.6052C105.997 75.4584 104.886 74.8849 103.345 74.8849C102.377 74.8849 101.553 75.1537 100.872 75.6913C100.191 76.2289 99.6533 77.0174 99.259 78.0568C98.9006 79.0603 98.7214 80.2968 98.7214 81.7662V97.948H91.4638V81.7662C91.4638 79.5441 91.1413 77.8417 90.4961 76.659C89.851 75.4763 88.74 74.8849 87.163 74.8849C86.1953 74.8849 85.3531 75.1537 84.6363 75.6913C83.9553 76.2289 83.4357 77.0174 83.0773 78.0568C82.7189 79.0961 82.5397 80.3326 82.5397 81.7662V97.948H74.4757ZM122.041 106.012V69.1326H129.782L129.943 75.2075L129.298 74.9387C130.015 72.86 131.18 71.2651 132.793 70.154C134.405 69.043 136.287 68.4875 138.437 68.4875C141.125 68.4875 143.365 69.1505 145.157 70.4766C146.949 71.8027 148.293 73.6126 149.189 75.9064C150.121 78.1643 150.587 80.7089 150.587 83.5403C150.587 86.3358 150.121 88.8804 149.189 91.1742C148.293 93.468 146.932 95.2779 145.104 96.604C143.312 97.93 141.072 98.5931 138.384 98.5931C136.986 98.5931 135.678 98.3422 134.459 97.8404C133.241 97.3028 132.183 96.5681 131.287 95.6363C130.427 94.7044 129.8 93.5934 129.406 92.3032L130.105 91.8731V106.012H122.041ZM136.18 92.4107C138.079 92.4107 139.566 91.6222 140.642 90.0452C141.753 88.4683 142.308 86.3 142.308 83.5403C142.308 80.7806 141.753 78.6123 140.642 77.0353C139.566 75.4584 138.079 74.6699 136.18 74.6699C134.925 74.6699 133.832 75.0104 132.9 75.6913C132.004 76.3364 131.305 77.322 130.804 78.6481C130.338 79.9742 130.105 81.6049 130.105 83.5403C130.105 85.4756 130.338 87.1064 130.804 88.4324C131.305 89.7585 132.004 90.762 132.9 91.443C133.832 92.0881 134.925 92.4107 136.18 92.4107ZM165.05 98.5931C162.075 98.5931 159.746 97.6433 158.061 95.7438C156.412 93.8084 155.588 91.1204 155.588 87.6798V69.1326H163.652V85.7982C163.652 88.0203 163.993 89.651 164.674 90.6904C165.355 91.6939 166.43 92.1956 167.899 92.1956C169.548 92.1956 170.82 91.6401 171.716 90.5291C172.648 89.3822 173.114 87.6798 173.114 85.4219V69.1326H181.178V97.948H173.813L173.598 89.6689L174.619 89.884C174.189 92.7512 173.168 94.9195 171.555 96.3889C169.942 97.8584 167.774 98.5931 165.05 98.5931ZM200.029 98.5931C197.054 98.5931 194.564 98.1809 192.557 97.3566C190.55 96.4964 189.008 95.3496 187.933 93.916C186.894 92.4465 186.302 90.762 186.159 88.8625L194.331 88.5937C194.582 89.9556 195.155 91.0129 196.051 91.7656C196.947 92.5182 198.273 92.8945 200.029 92.8945C201.463 92.8945 202.574 92.6616 203.362 92.1956C204.187 91.7297 204.599 91.0129 204.599 90.0452C204.599 89.436 204.455 88.9342 204.169 88.54C203.882 88.1099 203.309 87.7515 202.448 87.4648C201.624 87.1422 200.388 86.8555 198.739 86.6046C195.693 86.067 193.309 85.4398 191.589 84.723C189.869 84.0062 188.65 83.0744 187.933 81.9275C187.216 80.7806 186.858 79.3828 186.858 77.7342C186.858 74.9745 187.915 72.7524 190.03 71.068C192.18 69.3476 195.388 68.4875 199.653 68.4875C202.377 68.4875 204.653 68.9176 206.48 69.7777C208.344 70.6379 209.778 71.8206 210.781 73.3259C211.821 74.7953 212.466 76.4798 212.717 78.3793L204.599 78.7019C204.491 77.77 204.205 76.9816 203.739 76.3364C203.309 75.6555 202.753 75.1358 202.072 74.7774C201.391 74.3832 200.567 74.186 199.599 74.186C198.166 74.186 197.054 74.4907 196.266 75.1C195.513 75.6734 195.137 76.444 195.137 77.4116C195.137 78.1284 195.298 78.7198 195.621 79.1857C195.979 79.6158 196.553 79.9742 197.341 80.2609C198.13 80.5476 199.187 80.7806 200.513 80.9598C203.595 81.3899 206.032 81.9992 207.824 82.7876C209.652 83.5403 210.96 84.49 211.749 85.6369C212.537 86.7838 212.932 88.1995 212.932 89.884C212.932 91.7476 212.394 93.3246 211.319 94.6148C210.244 95.9051 208.738 96.8907 206.803 97.5716C204.903 98.2526 202.646 98.5931 200.029 98.5931ZM228.136 97.948L241.899 59.7784H251.576L265.338 97.948H256.844L254.049 89.8302H239.372L236.577 97.948H228.136ZM241.684 83.1102H251.791L246.737 68.38L241.684 83.1102ZM268.883 97.948V69.1326H276.141L276.41 76.0676L275.657 75.7451C276.051 74.204 276.643 72.8958 277.431 71.8206C278.255 70.7454 279.241 69.9211 280.388 69.3476C281.535 68.7742 282.789 68.4875 284.151 68.4875C286.552 68.4875 288.488 69.1864 289.957 70.5841C291.462 71.9819 292.43 73.8635 292.86 76.2289L291.839 76.2827C292.161 74.5982 292.717 73.1825 293.505 72.0356C294.33 70.8529 295.333 69.9748 296.516 69.4014C297.699 68.7921 299.025 68.4875 300.494 68.4875C302.501 68.4875 304.221 68.8996 305.655 69.724C307.089 70.5483 308.2 71.7848 308.988 73.4334C309.777 75.0462 310.171 77.0353 310.171 79.4008V97.948H302.107V81.6587C302.107 79.4008 301.766 77.7163 301.085 76.6052C300.404 75.4584 299.293 74.8849 297.752 74.8849C296.785 74.8849 295.96 75.1537 295.279 75.6913C294.598 76.2289 294.061 77.0174 293.667 78.0568C293.308 79.0603 293.129 80.2968 293.129 81.7662V97.948H285.871V81.7662C285.871 79.5441 285.549 77.8417 284.904 76.659C284.259 75.4763 283.147 74.8849 281.571 74.8849C280.603 74.8849 279.761 75.1537 279.044 75.6913C278.363 76.2289 277.843 77.0174 277.485 78.0568C277.126 79.0961 276.947 80.3326 276.947 81.7662V97.948H268.883ZM333.374 98.5931C331.367 98.5931 329.611 98.163 328.105 97.3028C326.636 96.4427 325.489 95.242 324.665 93.7009L324.503 97.948H316.816V59.7784H324.88V73.2184C325.632 71.8923 326.743 70.7812 328.213 69.8852C329.682 68.9534 331.403 68.4875 333.374 68.4875C335.811 68.4875 337.925 69.1147 339.717 70.3691C341.509 71.5876 342.889 73.3259 343.857 75.5838C344.86 77.8417 345.362 80.4939 345.362 83.5403C345.362 86.5867 344.86 89.2388 343.857 91.4968C342.889 93.7547 341.509 95.5108 339.717 96.7652C337.925 97.9838 335.811 98.5931 333.374 98.5931ZM331.116 92.4107C332.908 92.4107 334.341 91.6401 335.417 90.099C336.528 88.522 337.083 86.3358 337.083 83.5403C337.083 80.7448 336.546 78.5764 335.47 77.0353C334.395 75.4584 332.962 74.6699 331.17 74.6699C329.843 74.6699 328.697 75.0283 327.729 75.7451C326.797 76.426 326.08 77.4296 325.579 78.7556C325.113 80.0817 324.88 81.6766 324.88 83.5403C324.88 85.3681 325.113 86.9451 325.579 88.2712C326.08 89.5972 326.797 90.6187 327.729 91.3355C328.697 92.0523 329.826 92.4107 331.116 92.4107ZM359.173 98.5931C356.199 98.5931 353.762 97.9121 351.862 96.5502C349.998 95.1524 349.067 93.2171 349.067 90.7441C349.067 88.1995 349.855 86.2462 351.432 84.8843C353.045 83.4865 355.41 82.4651 358.528 81.82L367.829 79.9921C367.829 78.1284 367.399 76.7307 366.539 75.7988C365.714 74.8312 364.514 74.3473 362.937 74.3473C361.396 74.3473 360.195 74.7057 359.335 75.4225C358.475 76.1035 357.919 77.1249 357.668 78.4868L349.55 78.1105C350.088 74.9566 351.504 72.5732 353.797 70.9604C356.127 69.3118 359.173 68.4875 362.937 68.4875C367.237 68.4875 370.463 69.5089 372.613 71.5518C374.8 73.5947 375.893 76.5873 375.893 80.5297V90.3678C375.893 91.1921 376.018 91.7476 376.269 92.0344C376.556 92.2852 376.968 92.4107 377.506 92.4107H378.312V97.948C378.061 98.0196 377.649 98.0913 377.076 98.163C376.538 98.2347 376 98.2705 375.463 98.2705C374.316 98.2705 373.241 98.0734 372.237 97.6792C371.269 97.2849 370.481 96.6219 369.872 95.69C369.262 94.7224 368.958 93.3604 368.958 91.6043L369.657 92.1419C369.298 93.4321 368.653 94.5611 367.721 95.5288C366.825 96.4964 365.643 97.2491 364.173 97.7867C362.74 98.3243 361.073 98.5931 359.173 98.5931ZM361.109 93.0558C362.435 93.0558 363.6 92.8049 364.603 92.3032C365.607 91.7656 366.395 90.995 366.969 89.9915C367.542 88.988 367.829 87.8052 367.829 86.4433V85.0456L361.27 86.4433C359.98 86.6942 358.994 87.1243 358.313 87.7336C357.668 88.307 357.346 89.0596 357.346 89.9915C357.346 90.9592 357.668 91.7118 358.313 92.2494C358.958 92.787 359.89 93.0558 361.109 93.0558ZM394.332 98.5931C391.357 98.5931 388.866 98.1809 386.859 97.3566C384.852 96.4964 383.311 95.3496 382.236 93.916C381.196 92.4465 380.605 90.762 380.462 88.8625L388.633 88.5937C388.884 89.9556 389.457 91.0129 390.353 91.7656C391.249 92.5182 392.576 92.8945 394.332 92.8945C395.765 92.8945 396.876 92.6616 397.665 92.1956C398.489 91.7297 398.901 91.0129 398.901 90.0452C398.901 89.436 398.758 88.9342 398.471 88.54C398.184 88.1099 397.611 87.7515 396.751 87.4648C395.927 87.1422 394.69 86.8555 393.041 86.6046C389.995 86.067 387.612 85.4398 385.891 84.723C384.171 84.0062 382.952 83.0744 382.236 81.9275C381.519 80.7806 381.16 79.3828 381.16 77.7342C381.16 74.9745 382.218 72.7524 384.332 71.068C386.483 69.3476 389.69 68.4875 393.955 68.4875C396.679 68.4875 398.955 68.9176 400.783 69.7777C402.647 70.6379 404.08 71.8206 405.084 73.3259C406.123 74.7953 406.768 76.4798 407.019 78.3793L398.901 78.7019C398.794 77.77 398.507 76.9816 398.041 76.3364C397.611 75.6555 397.056 75.1358 396.375 74.7774C395.694 74.3832 394.869 74.186 393.902 74.186C392.468 74.186 391.357 74.4907 390.568 75.1C389.816 75.6734 389.44 76.444 389.44 77.4116C389.44 78.1284 389.601 78.7198 389.923 79.1857C390.282 79.6158 390.855 79.9742 391.644 80.2609C392.432 80.5476 393.489 80.7806 394.816 80.9598C397.898 81.3899 400.335 81.9992 402.127 82.7876C403.955 83.5403 405.263 84.49 406.051 85.6369C406.84 86.7838 407.234 88.1995 407.234 89.884C407.234 91.7476 406.696 93.3246 405.621 94.6148C404.546 95.9051 403.041 96.8907 401.105 97.5716C399.206 98.2526 396.948 98.5931 394.332 98.5931ZM424.519 98.5931C421.544 98.5931 419.054 98.1809 417.047 97.3566C415.039 96.4964 413.498 95.3496 412.423 93.916C411.384 92.4465 410.792 90.762 410.649 88.8625L418.821 88.5937C419.071 89.9556 419.645 91.0129 420.541 91.7656C421.437 92.5182 422.763 92.8945 424.519 92.8945C425.953 92.8945 427.064 92.6616 427.852 92.1956C428.677 91.7297 429.089 91.0129 429.089 90.0452C429.089 89.436 428.945 88.9342 428.659 88.54C428.372 88.1099 427.799 87.7515 426.938 87.4648C426.114 87.1422 424.878 86.8555 423.229 86.6046C420.183 86.067 417.799 85.4398 416.079 84.723C414.359 84.0062 413.14 83.0744 412.423 81.9275C411.706 80.7806 411.348 79.3828 411.348 77.7342C411.348 74.9745 412.405 72.7524 414.52 71.068C416.67 69.3476 419.878 68.4875 424.143 68.4875C426.867 68.4875 429.143 68.9176 430.97 69.7777C432.834 70.6379 434.268 71.8206 435.271 73.3259C436.311 74.7953 436.956 76.4798 437.207 78.3793L429.089 78.7019C428.981 77.77 428.695 76.9816 428.229 76.3364C427.799 75.6555 427.243 75.1358 426.562 74.7774C425.881 74.3832 425.057 74.186 424.089 74.186C422.655 74.186 421.544 74.4907 420.756 75.1C420.003 75.6734 419.627 76.444 419.627 77.4116C419.627 78.1284 419.788 78.7198 420.111 79.1857C420.469 79.6158 421.043 79.9742 421.831 80.2609C422.62 80.5476 423.677 80.7806 425.003 80.9598C428.085 81.3899 430.522 81.9992 432.314 82.7876C434.142 83.5403 435.45 84.49 436.239 85.6369C437.027 86.7838 437.422 88.1995 437.422 89.884C437.422 91.7476 436.884 93.3246 435.809 94.6148C434.734 95.9051 433.228 96.8907 431.293 97.5716C429.393 98.2526 427.135 98.5931 424.519 98.5931ZM451.206 98.5931C448.231 98.5931 445.794 97.9121 443.895 96.5502C442.031 95.1524 441.099 93.2171 441.099 90.7441C441.099 88.1995 441.888 86.2462 443.465 84.8843C445.077 83.4865 447.443 82.4651 450.561 81.82L459.861 79.9921C459.861 78.1284 459.431 76.7307 458.571 75.7988C457.747 74.8312 456.546 74.3473 454.969 74.3473C453.428 74.3473 452.227 74.7057 451.367 75.4225C450.507 76.1035 449.952 77.1249 449.701 78.4868L441.583 78.1105C442.121 74.9566 443.536 72.5732 445.83 70.9604C448.16 69.3118 451.206 68.4875 454.969 68.4875C459.27 68.4875 462.496 69.5089 464.646 71.5518C466.832 73.5947 467.925 76.5873 467.925 80.5297V90.3678C467.925 91.1921 468.051 91.7476 468.302 92.0344C468.588 92.2852 469.001 92.4107 469.538 92.4107H470.345V97.948C470.094 98.0196 469.682 98.0913 469.108 98.163C468.57 98.2347 468.033 98.2705 467.495 98.2705C466.348 98.2705 465.273 98.0734 464.27 97.6792C463.302 97.2849 462.514 96.6219 461.904 95.69C461.295 94.7224 460.99 93.3604 460.99 91.6043L461.689 92.1419C461.331 93.4321 460.686 94.5611 459.754 95.5288C458.858 96.4964 457.675 97.2491 456.206 97.7867C454.772 98.3243 453.106 98.5931 451.206 98.5931ZM453.141 93.0558C454.467 93.0558 455.632 92.8049 456.636 92.3032C457.639 91.7656 458.428 90.995 459.001 89.9915C459.575 88.988 459.861 87.8052 459.861 86.4433V85.0456L453.303 86.4433C452.012 86.6942 451.027 87.1243 450.346 87.7336C449.701 88.307 449.378 89.0596 449.378 89.9915C449.378 90.9592 449.701 91.7118 450.346 92.2494C450.991 92.787 451.923 93.0558 453.141 93.0558ZM484.321 98.5931C481.884 98.5931 479.77 97.9838 477.978 96.7652C476.221 95.5108 474.86 93.7726 473.892 91.5505C472.96 89.2926 472.494 86.6225 472.494 83.5403C472.494 80.458 472.978 77.8059 473.946 75.5838C474.913 73.3259 476.275 71.5876 478.031 70.3691C479.823 69.1147 481.92 68.4875 484.321 68.4875C486.364 68.4875 488.12 68.9176 489.59 69.7777C491.095 70.602 492.224 71.7489 492.977 73.2184V59.7784H501.041V97.948H493.353L493.192 93.7009C492.403 95.242 491.22 96.4427 489.644 97.3028C488.102 98.163 486.328 98.5931 484.321 98.5931ZM486.956 92.4107C488.246 92.4107 489.339 92.0702 490.235 91.3892C491.131 90.7083 491.812 89.7227 492.278 88.4324C492.744 87.1064 492.977 85.4756 492.977 83.5403C492.977 81.5691 492.744 79.9384 492.278 78.6481C491.812 77.322 491.131 76.3364 490.235 75.6913C489.339 75.0104 488.246 74.6699 486.956 74.6699C485.056 74.6699 483.551 75.4763 482.44 77.0891C481.329 78.666 480.773 80.8164 480.773 83.5403C480.773 86.2283 481.329 88.3787 482.44 89.9915C483.587 91.6043 485.092 92.4107 486.956 92.4107ZM520.664 98.5931C517.725 98.5931 515.163 97.9838 512.977 96.7652C510.79 95.5108 509.088 93.7547 507.869 91.4968C506.651 89.2388 506.042 86.5867 506.042 83.5403C506.042 80.4939 506.651 77.8596 507.869 75.6376C509.088 73.3796 510.79 71.6235 512.977 70.3691C515.163 69.1147 517.725 68.4875 520.664 68.4875C523.603 68.4875 526.166 69.1147 528.352 70.3691C530.538 71.6235 532.241 73.3796 533.459 75.6376C534.678 77.8596 535.287 80.4939 535.287 83.5403C535.287 86.5867 534.678 89.2388 533.459 91.4968C532.241 93.7547 530.538 95.5108 528.352 96.7652C526.166 97.9838 523.603 98.5931 520.664 98.5931ZM520.664 92.4107C522.671 92.4107 524.23 91.6401 525.341 90.099C526.452 88.522 527.008 86.3358 527.008 83.5403C527.008 80.7448 526.452 78.5764 525.341 77.0353C524.23 75.4584 522.671 74.6699 520.664 74.6699C518.657 74.6699 517.098 75.4584 515.987 77.0353C514.876 78.5764 514.321 80.7448 514.321 83.5403C514.321 86.3358 514.876 88.522 515.987 90.099C517.098 91.6401 518.657 92.4107 520.664 92.4107ZM540.308 97.948V69.1326H547.942L548.211 77.5192L547.62 77.3579C548.085 74.4548 548.91 72.3582 550.092 71.068C551.275 69.7777 552.906 69.1326 554.985 69.1326H557.619V75.7988H554.985C553.479 75.7988 552.243 75.996 551.275 76.3902C550.308 76.7844 549.573 77.4116 549.071 78.2718C548.605 79.132 548.372 80.2968 548.372 81.7662V97.948H540.308Z" fill="url(#paint0_linear_158_218)"/>
<defs>
<linearGradient id="paint0_linear_158_218" x1="0" y1="78.448" x2="560" y2="78.448" gradientUnits="userSpaceOnUse">
<stop stop-color="#F9F9FF"/>
<stop offset="1" stop-color="#97E8FE"/>
</linearGradient>
</defs>
</svg>
