<svg width="79" height="113" viewBox="0 0 79 113" fill="none" xmlns="http://www.w3.org/2000/svg">
<path d="M33.035 1.50552C22.9475 3.23089 13.9585 8.89284 8.0456 17.2458C2.13269 25.5988 -0.219846 35.9585 1.50553 46.046C3.71741 58.9779 12.1257 69.2281 23.1408 74.4466L25.2411 86.7264C25.4876 88.1675 26.2964 89.4517 27.4897 90.2964C28.683 91.1411 30.163 91.4771 31.604 91.2306L64.2054 85.6545C65.6465 85.408 66.9306 84.5992 67.7753 83.4059C68.62 82.2126 68.9561 80.7326 68.7096 79.2916L66.6093 67.0117C75.2637 58.4289 79.7873 45.9668 77.5754 33.035C75.8501 22.9475 70.1881 13.9585 61.8352 8.0456C53.4822 2.13268 43.1225 -0.219853 33.035 1.50552ZM34.3921 107.531C34.6386 108.972 35.4475 110.257 36.6407 111.101C37.834 111.946 39.314 112.282 40.755 112.036L62.4893 108.318C63.9304 108.072 65.2145 107.263 66.0592 106.069C66.9039 104.876 67.24 103.396 66.9935 101.955L66.0642 96.5216L33.4628 102.098L34.3921 107.531Z" fill="black"/>
<path d="M33.035 1.50552C22.9475 3.23089 13.9585 8.89284 8.0456 17.2458C2.13269 25.5988 -0.219846 35.9585 1.50553 46.046C3.71741 58.9779 12.1257 69.2281 23.1408 74.4466L25.2411 86.7264C25.4876 88.1675 26.2964 89.4517 27.4897 90.2964C28.683 91.1411 30.163 91.4771 31.604 91.2306L64.2054 85.6545C65.6465 85.408 66.9306 84.5992 67.7753 83.4059C68.62 82.2126 68.9561 80.7326 68.7096 79.2916L66.6093 67.0117C75.2637 58.4289 79.7873 45.9668 77.5754 33.035C75.8501 22.9475 70.1881 13.9585 61.8352 8.0456C53.4822 2.13268 43.1225 -0.219853 33.035 1.50552ZM34.3921 107.531C34.6386 108.972 35.4475 110.257 36.6407 111.101C37.834 111.946 39.314 112.282 40.755 112.036L62.4893 108.318C63.9304 108.072 65.2145 107.263 66.0592 106.069C66.9039 104.876 67.24 103.396 66.9935 101.955L66.0642 96.5216L33.4628 102.098L34.3921 107.531Z" fill="url(#paint0_linear_153_211)"/>
<defs>
<linearGradient id="paint0_linear_153_211" x1="4.29361" y1="62.3467" x2="80.3635" y2="49.3356" gradientUnits="userSpaceOnUse">
<stop stop-color="#F9F9FF"/>
<stop offset="1" stop-color="#7E79FF"/>
</linearGradient>
</defs>
</svg>
