<svg width="339" height="140" viewBox="0 0 339 140" fill="none" xmlns="http://www.w3.org/2000/svg">
<path d="M155.331 31.8251C152.913 31.8251 151.135 31.7184 149.998 31.5051C148.86 31.2917 148.291 31.0428 148.291 30.7584L150.424 26.1182C151.242 26.2604 153.269 26.4026 156.504 26.5449C159.776 26.6515 164.256 26.7049 169.945 26.7049H170.958C172.487 26.7049 173.572 26.4382 174.212 25.9048C174.852 25.3359 175.172 24.3937 175.172 23.078V22.0113C175.172 20.7668 174.905 19.8779 174.372 19.3446C173.874 18.8112 172.736 18.5445 170.958 18.5445H158.585C154.993 18.5445 152.38 17.8867 150.744 16.5711C149.109 15.2199 148.291 13.0332 148.291 10.0109V9.15748C148.291 7.59298 148.575 6.15292 149.144 4.83731C149.749 3.5217 150.762 2.47277 152.184 1.69052C153.607 0.872706 155.562 0.463801 158.051 0.463801H172.558C174.976 0.463801 176.932 0.588249 178.425 0.837147C179.919 1.08605 180.665 1.35272 180.665 1.63718L179.599 6.11736C178.674 6.01069 176.576 5.90402 173.305 5.79735C170.034 5.65512 165.643 5.584 160.131 5.584L159.545 5.53067C157.909 5.53067 156.807 5.86846 156.238 6.54404C155.669 7.18407 155.367 8.00188 155.331 8.99747V9.90418C155.331 11.0776 155.651 11.9665 156.291 12.571C156.967 13.1399 158.069 13.4243 159.598 13.4243H171.438C173.714 13.4243 175.652 13.6554 177.252 14.1177C178.852 14.5799 180.079 15.4333 180.932 16.6778C181.785 17.8867 182.212 19.6824 182.212 22.0647V22.918C182.212 25.5848 181.519 27.736 180.132 29.3716C178.781 31.0073 176.416 31.8251 173.038 31.8251H155.331Z" fill="white"/>
<path d="M200.392 31.8251L200.339 5.53067H186.471V0.410461H221.353V5.53067H207.432V31.8251H200.392Z" fill="white"/>
<path d="M216.031 31.8251L231.658 0.463801H242.165L257.739 31.8251H249.526L246.379 25.0515H227.285L223.818 31.8251H216.031ZM229.205 19.8246H244.405L237.099 5.26399H236.565L229.205 19.8246Z" fill="white"/>
<path d="M270.204 31.8251C267.679 31.8251 265.706 31.4695 264.283 30.7584C262.861 30.0472 261.866 28.9805 261.297 27.5582C260.728 26.1359 260.443 24.3759 260.443 22.278V10.3842C260.443 6.97073 261.208 4.46396 262.737 2.86389C264.266 1.22827 266.755 0.410461 270.204 0.410461H286.258C288.711 0.410461 290.578 0.55269 291.858 0.837147C293.173 1.08605 293.831 1.35272 293.831 1.63718L292.765 6.06402C292.16 5.95735 290.364 5.85068 287.378 5.74401C284.426 5.60178 280.124 5.53067 274.47 5.53067H271.75C268.906 5.53067 267.484 6.79294 267.484 9.31749V22.918C267.484 24.127 267.786 25.0692 268.39 25.7448C269.03 26.3848 270.15 26.7049 271.75 26.7049H273.937C279.84 26.7049 284.409 26.6515 287.644 26.5449C290.916 26.4026 292.942 26.2604 293.725 26.1182L295.911 29.6383C295.911 29.8161 295.609 30.0828 295.005 30.4383C294.436 30.7939 293.369 31.1139 291.804 31.3984C290.24 31.6828 287.982 31.8251 285.031 31.8251H270.204Z" fill="white"/>
<path d="M334.68 32.3584C332.938 32.3584 331.426 32.0029 330.146 31.2917C328.866 30.5806 327.604 29.6205 326.36 28.4116C325.008 26.9893 323.373 25.3537 321.453 23.5047C320.564 22.5802 319.657 21.8158 318.733 21.2113C317.808 20.6068 316.759 20.1446 315.586 19.8246C314.448 19.5046 313.026 19.3446 311.319 19.3446H308.812V31.8251H301.772V4.73064L301.239 0.463801H308.812V14.1177H311.799C312.51 14.1177 313.097 14.0288 313.559 13.851C314.021 13.6732 314.448 13.3888 314.839 12.9976C315.835 12.002 316.973 10.7576 318.253 9.26416C319.533 7.77076 320.777 6.24181 321.986 4.6773C323.231 3.07724 324.297 1.67274 325.186 0.463801H333.827L331.64 3.66393C330.644 4.69508 329.578 5.81512 328.44 7.02406C327.302 8.233 326.182 9.42416 325.08 10.5975C323.977 11.7354 322.982 12.7487 322.093 13.6377C321.204 14.491 320.546 15.1133 320.119 15.5044C321.079 15.8244 321.951 16.2333 322.733 16.7311C323.551 17.2289 324.546 17.9578 325.72 18.9179C326.609 19.629 327.462 20.3579 328.28 21.1046C329.133 21.8513 330.111 22.7403 331.213 23.7714C332.458 24.9092 333.631 25.7448 334.733 26.2782C335.836 26.8115 336.76 27.1493 337.507 27.2915C338.289 27.4338 338.787 27.5049 339 27.5049L337.933 31.8251C337.827 31.9317 337.507 32.0384 336.973 32.1451C336.44 32.2873 335.676 32.3584 334.68 32.3584Z" fill="white"/>
<path d="M5.5328 31.7923V4.7261L5 0.463713H38.2467V5.57858H12.5657V13.3574H32.4924V18.6322H12.5657V31.7923H5.5328Z" fill="white"/>
<path d="M43.5551 31.7923V0.463713H50.588V31.7923H43.5551Z" fill="white"/>
<path d="M93.1583 32.3251C91.7375 32.3251 90.3344 32.112 88.9492 31.6857C87.5994 31.224 86.0543 30.1229 84.3138 28.3824L80.4777 24.5462C78.9148 22.9478 77.1921 21.7757 75.3095 21.0298C73.4625 20.2838 71.1359 19.9109 68.3298 19.9109H66.6782V31.7923H59.6452V4.7261L59.1124 0.410431H82.7154C84.9887 0.410431 86.7647 0.712351 88.0434 1.31619C89.3576 1.92003 90.3167 2.71923 90.9205 3.71379C91.5599 4.67282 91.9684 5.7029 92.146 6.80402C92.3236 7.90514 92.4124 8.95298 92.4124 9.94753V10.9599C92.4124 11.7413 92.3058 12.6115 92.0927 13.5706C91.8796 14.5296 91.4711 15.4709 90.8672 16.3944C90.2634 17.3179 89.3932 18.0994 88.2565 18.7387C87.1554 19.3781 85.6991 19.751 83.8876 19.8576C84.3493 20.1062 84.9354 20.497 85.6458 21.0298C86.3562 21.527 87.0844 22.0776 87.8303 22.6814C88.6117 23.2853 89.3221 23.8358 89.9615 24.3331C90.6008 24.8304 91.0981 25.1856 91.4533 25.3987C92.732 26.1446 93.8687 26.6597 94.8632 26.9438C95.8578 27.228 96.6747 27.3878 97.3141 27.4233C97.9535 27.4589 98.3264 27.4766 98.433 27.4766L97.3674 31.7923C97.0477 31.8989 96.5149 32.0054 95.769 32.112C95.0231 32.2541 94.1528 32.3251 93.1583 32.3251ZM74.6701 15.0624C76.0199 15.0624 77.2276 15.0446 78.2932 15.0091C79.3588 14.9381 80.3178 14.867 81.1703 14.796C82.7332 14.6184 83.8165 14.1922 84.4204 13.5173C85.0597 12.8069 85.3794 11.9011 85.3794 10.8V9.57457C85.3794 8.43794 85.0775 7.4789 84.4736 6.69746C83.8698 5.91602 82.7864 5.5253 81.2236 5.5253H66.6782V14.796C68.241 14.9026 69.6796 14.9736 70.9938 15.0091C72.3081 15.0446 73.5335 15.0624 74.6701 15.0624Z" fill="white"/>
<path d="M112.452 31.7923C109.966 31.7923 108.012 31.4371 106.591 30.7267C105.171 30.0163 104.158 28.9507 103.555 27.5299C102.986 26.1091 102.702 24.3509 102.702 22.2552V9.94753C102.702 7.88738 102.986 6.16466 103.555 4.77938C104.123 3.35859 105.117 2.29299 106.538 1.58259C107.959 0.836672 109.93 0.463713 112.452 0.463713H128.01C130.496 0.463713 132.432 0.836672 133.817 1.58259C135.238 2.29299 136.233 3.35859 136.801 4.77938C137.405 6.16466 137.707 7.88738 137.707 9.94753V22.2552C137.707 25.3809 137.014 27.7608 135.629 29.3947C134.244 30.9931 131.704 31.7923 128.01 31.7923H112.452ZM113.997 26.6774H126.518C127.832 26.6774 128.845 26.34 129.555 25.6651C130.301 24.9902 130.674 24.0667 130.674 22.8945V9.30818C130.674 8.2781 130.301 7.40786 129.555 6.69746C128.809 5.95154 127.797 5.57858 126.518 5.57858H113.997C112.719 5.57858 111.689 5.91602 110.907 6.5909C110.126 7.26578 109.735 8.17154 109.735 9.30818V22.8945C109.735 24.1022 110.108 25.0435 110.854 25.7184C111.635 26.3577 112.683 26.6774 113.997 26.6774Z" fill="white"/>
<path d="M5.328 111.35V60.2295H16.272V111.35H5.328ZM39.3868 112.214C36.1228 112.214 33.2908 111.398 30.8908 109.766C28.5388 108.086 26.7148 105.758 25.4188 102.782C24.1708 99.7575 23.5468 96.1815 23.5468 92.0535C23.5468 87.9255 24.1948 84.3735 25.4908 81.3975C26.7868 78.3735 28.6108 76.0455 30.9628 74.4135C33.3628 72.7335 36.1708 71.8935 39.3868 71.8935C42.1228 71.8935 44.4748 72.4695 46.4428 73.6215C48.4588 74.7255 49.9708 76.2615 50.9788 78.2295V60.2295H61.7788V111.35H51.4828L51.2668 105.662C50.2108 107.726 48.6268 109.334 46.5148 110.486C44.4508 111.638 42.0748 112.214 39.3868 112.214ZM42.9148 103.934C44.6428 103.934 46.1068 103.478 47.3068 102.566C48.5068 101.654 49.4188 100.334 50.0428 98.6055C50.6668 96.8295 50.9788 94.6455 50.9788 92.0535C50.9788 89.4135 50.6668 87.2295 50.0428 85.5015C49.4188 83.7255 48.5068 82.4055 47.3068 81.5415C46.1068 80.6295 44.6428 80.1735 42.9148 80.1735C40.3708 80.1735 38.3548 81.2535 36.8668 83.4135C35.3788 85.5255 34.6348 88.4055 34.6348 92.0535C34.6348 95.6535 35.3788 98.5335 36.8668 100.694C38.4028 102.854 40.4188 103.934 42.9148 103.934ZM87.9165 112.214C83.9805 112.214 80.5485 111.398 77.6205 109.766C74.7405 108.086 72.4845 105.734 70.8525 102.71C69.2685 99.6855 68.4765 96.1335 68.4765 92.0535C68.4765 87.9735 69.2685 84.4455 70.8525 81.4695C72.4845 78.4455 74.7405 76.0935 77.6205 74.4135C80.5005 72.7335 83.9085 71.8935 87.8445 71.8935C91.6845 71.8935 95.0205 72.7335 97.8525 74.4135C100.685 76.0935 102.869 78.4935 104.405 81.6135C105.989 84.7335 106.781 88.4535 106.781 92.7735V94.9335H79.6365C79.7805 98.0055 80.5965 100.286 82.0845 101.774C83.6205 103.262 85.6365 104.006 88.1325 104.006C89.9565 104.006 91.4685 103.622 92.6685 102.854C93.9165 102.086 94.8045 100.91 95.3325 99.3255L106.205 99.9735C105.197 103.814 103.061 106.814 99.7965 108.974C96.5325 111.134 92.5725 112.214 87.9165 112.214ZM79.6365 88.3095H95.6925C95.5485 85.4775 94.7565 83.3655 93.3165 81.9735C91.9245 80.5815 90.1005 79.8855 87.8445 79.8855C85.5885 79.8855 83.7165 80.6295 82.2285 82.1175C80.7885 83.5575 79.9245 85.6215 79.6365 88.3095ZM125.255 112.214C121.271 112.214 118.007 111.302 115.463 109.478C112.967 107.606 111.719 105.014 111.719 101.702C111.719 98.2935 112.775 95.6775 114.887 93.8535C117.047 91.9815 120.215 90.6135 124.391 89.7495L136.847 87.3015C136.847 84.8055 136.271 82.9335 135.119 81.6855C134.015 80.3895 132.407 79.7415 130.295 79.7415C128.231 79.7415 126.623 80.2215 125.471 81.1815C124.319 82.0935 123.575 83.4615 123.239 85.2855L112.367 84.7815C113.087 80.5575 114.983 77.3655 118.055 75.2055C121.175 72.9975 125.255 71.8935 130.295 71.8935C136.055 71.8935 140.375 73.2615 143.255 75.9975C146.183 78.7335 147.647 82.7415 147.647 88.0215V101.198C147.647 102.302 147.815 103.046 148.151 103.43C148.535 103.766 149.087 103.934 149.807 103.934H150.887V111.35C150.551 111.446 149.999 111.542 149.231 111.638C148.511 111.734 147.791 111.782 147.071 111.782C145.535 111.782 144.095 111.518 142.751 110.99C141.455 110.462 140.399 109.574 139.583 108.326C138.767 107.03 138.359 105.206 138.359 102.854L139.295 103.574C138.815 105.302 137.951 106.814 136.703 108.11C135.503 109.406 133.919 110.414 131.951 111.134C130.031 111.854 127.799 112.214 125.255 112.214ZM127.847 104.798C129.623 104.798 131.183 104.462 132.527 103.79C133.871 103.07 134.927 102.038 135.695 100.694C136.463 99.3495 136.847 97.7655 136.847 95.9415V94.0695L128.063 95.9415C126.335 96.2775 125.015 96.8535 124.103 97.6695C123.239 98.4375 122.807 99.4455 122.807 100.694C122.807 101.99 123.239 102.998 124.103 103.718C124.967 104.438 126.215 104.798 127.847 104.798ZM173.516 111.35V60.2295H184.46V108.398L178.412 102.134H208.004V111.35H173.516ZM226.786 112.214C222.802 112.214 219.538 111.302 216.994 109.478C214.498 107.606 213.25 105.014 213.25 101.702C213.25 98.2935 214.306 95.6775 216.418 93.8535C218.578 91.9815 221.746 90.6135 225.922 89.7495L238.378 87.3015C238.378 84.8055 237.802 82.9335 236.65 81.6855C235.546 80.3895 233.938 79.7415 231.826 79.7415C229.762 79.7415 228.154 80.2215 227.002 81.1815C225.85 82.0935 225.106 83.4615 224.77 85.2855L213.898 84.7815C214.618 80.5575 216.514 77.3655 219.586 75.2055C222.706 72.9975 226.786 71.8935 231.826 71.8935C237.586 71.8935 241.906 73.2615 244.786 75.9975C247.714 78.7335 249.178 82.7415 249.178 88.0215V101.198C249.178 102.302 249.346 103.046 249.682 103.43C250.066 103.766 250.618 103.934 251.338 103.934H252.418V111.35C252.082 111.446 251.53 111.542 250.762 111.638C250.042 111.734 249.322 111.782 248.602 111.782C247.066 111.782 245.626 111.518 244.282 110.99C242.986 110.462 241.93 109.574 241.114 108.326C240.298 107.03 239.89 105.206 239.89 102.854L240.826 103.574C240.346 105.302 239.482 106.814 238.234 108.11C237.034 109.406 235.45 110.414 233.482 111.134C231.562 111.854 229.33 112.214 226.786 112.214ZM229.378 104.798C231.154 104.798 232.714 104.462 234.058 103.79C235.402 103.07 236.458 102.038 237.226 100.694C237.994 99.3495 238.378 97.7655 238.378 95.9415V94.0695L229.594 95.9415C227.866 96.2775 226.546 96.8535 225.634 97.6695C224.77 98.4375 224.338 99.4455 224.338 100.694C224.338 101.99 224.77 102.998 225.634 103.718C226.498 104.438 227.746 104.798 229.378 104.798ZM279.701 112.214C277.013 112.214 274.661 111.638 272.645 110.486C270.677 109.334 269.141 107.726 268.037 105.662L267.821 111.35H257.525V60.2295H268.325V78.2295C269.333 76.4535 270.821 74.9655 272.789 73.7655C274.757 72.5175 277.061 71.8935 279.701 71.8935C282.965 71.8935 285.797 72.7335 288.197 74.4135C290.597 76.0455 292.445 78.3735 293.741 81.3975C295.085 84.4215 295.757 87.9735 295.757 92.0535C295.757 96.1335 295.085 99.6855 293.741 102.71C292.445 105.734 290.597 108.086 288.197 109.766C285.797 111.398 282.965 112.214 279.701 112.214ZM276.677 103.934C279.077 103.934 280.997 102.902 282.437 100.838C283.925 98.7255 284.669 95.7975 284.669 92.0535C284.669 88.3095 283.949 85.4055 282.509 83.3415C281.069 81.2295 279.149 80.1735 276.749 80.1735C274.973 80.1735 273.437 80.6535 272.141 81.6135C270.893 82.5255 269.933 83.8695 269.261 85.6455C268.637 87.4215 268.325 89.5575 268.325 92.0535C268.325 94.5015 268.637 96.6135 269.261 98.3895C269.933 100.166 270.893 101.534 272.141 102.494C273.437 103.454 274.949 103.934 276.677 103.934ZM318.943 112.214C314.959 112.214 311.623 111.662 308.935 110.558C306.247 109.406 304.183 107.87 302.743 105.95C301.351 103.982 300.559 101.726 300.367 99.1815L311.311 98.8215C311.647 100.646 312.415 102.062 313.615 103.07C314.815 104.078 316.591 104.582 318.943 104.582C320.863 104.582 322.351 104.27 323.407 103.646C324.511 103.022 325.063 102.062 325.063 100.766C325.063 99.9495 324.871 99.2775 324.487 98.7495C324.103 98.1735 323.335 97.6935 322.183 97.3095C321.079 96.8775 319.423 96.4935 317.215 96.1575C313.135 95.4375 309.943 94.5975 307.639 93.6375C305.335 92.6775 303.703 91.4295 302.743 89.8935C301.783 88.3575 301.303 86.4855 301.303 84.2775C301.303 80.5815 302.719 77.6055 305.551 75.3495C308.431 73.0455 312.727 71.8935 318.439 71.8935C322.087 71.8935 325.135 72.4695 327.583 73.6215C330.079 74.7735 331.999 76.3575 333.343 78.3735C334.735 80.3415 335.599 82.5975 335.935 85.1415L325.063 85.5735C324.919 84.3255 324.535 83.2695 323.911 82.4055C323.335 81.4935 322.591 80.7975 321.679 80.3175C320.767 79.7895 319.663 79.5255 318.367 79.5255C316.447 79.5255 314.959 79.9335 313.903 80.7495C312.895 81.5175 312.391 82.5495 312.391 83.8455C312.391 84.8055 312.607 85.5975 313.039 86.2215C313.519 86.7975 314.287 87.2775 315.343 87.6615C316.399 88.0455 317.815 88.3575 319.591 88.5975C323.719 89.1735 326.983 89.9895 329.383 91.0455C331.831 92.0535 333.583 93.3255 334.639 94.8615C335.695 96.3975 336.223 98.2935 336.223 100.55C336.223 103.046 335.503 105.158 334.063 106.886C332.623 108.614 330.607 109.934 328.015 110.846C325.471 111.758 322.447 112.214 318.943 112.214Z" fill="url(#paint0_linear_153_212)"/>
<defs>
<linearGradient id="paint0_linear_153_212" x1="0" y1="85.3495" x2="339" y2="85.3495" gradientUnits="userSpaceOnUse">
<stop stop-color="#F9F9FF"/>
<stop offset="1" stop-color="#7E79FF"/>
</linearGradient>
</defs>
</svg>
