<svg width="374" height="322" viewBox="0 0 374 322" fill="none" xmlns="http://www.w3.org/2000/svg">
<g clip-path="url(#clip0_101_889)">
<path d="M217.927 318.623L13.3489 200.513C9.74606 198.434 7.94463 195.663 7.89844 192.753C7.89844 192.753 7.89844 182.706 7.89844 182.614C7.96772 179.081 10.5775 185.224 15.6123 182.314L131.713 115.291C141.043 109.91 155.154 109.333 163.238 113.975L367.816 232.084C370.518 233.632 372.458 227.026 373.174 229.128C373.405 229.821 373.267 239.105 373.267 239.821C373.336 243.447 370.726 247.281 365.553 250.26L249.43 317.306C240.099 322.687 225.988 323.288 217.927 318.623Z" fill="#211B47"/>
<path d="M217.927 308.669L13.3489 190.559C5.26557 185.894 6.28176 177.741 15.6123 172.36L131.713 105.337C141.043 99.956 155.154 99.3555 163.238 104.021L367.816 222.13C375.9 226.796 374.883 234.948 365.553 240.329L249.43 307.375C240.099 312.756 225.988 313.334 217.927 308.669Z" fill="#372F6B"/>
<path d="M231.6 307.745C227.004 307.745 222.87 306.821 219.96 305.135L15.4044 187.025C14.1342 186.286 11.9863 184.739 11.9863 182.66C11.9863 180.489 14.1111 177.949 17.6678 175.893L133.768 108.871C138.064 106.376 143.815 104.968 149.565 104.968C154.161 104.968 158.295 105.891 161.205 107.577L365.761 225.687C367.031 226.426 369.179 227.973 369.179 230.052C369.179 232.223 367.054 234.763 363.497 236.819L247.397 303.842C243.101 306.313 237.328 307.745 231.6 307.745Z" fill="#7B65AB"/>
<path d="M228.066 280.654L61.9412 184.739C58.6155 182.822 59.0312 179.473 62.865 177.256L125.222 141.25C129.056 139.033 134.876 138.802 138.202 140.719L304.327 236.634C307.653 238.551 307.237 241.9 303.403 244.117L241.046 280.123C237.212 282.317 231.392 282.571 228.066 280.654Z" fill="#61469C"/>
<path d="M128.895 148.248L139.542 154.392C140.905 155.177 143.076 155.177 144.438 154.392C145.778 153.606 145.778 152.359 144.415 151.574L133.768 145.431C132.406 144.645 130.235 144.645 128.872 145.431C127.532 146.193 127.532 147.463 128.895 148.248ZM147.117 158.78L152.152 161.69C153.515 162.475 155.686 162.475 157.048 161.69C158.388 160.905 158.388 159.657 157.025 158.872L151.99 155.962C150.628 155.177 148.457 155.177 147.094 155.962C145.755 156.724 145.755 157.995 147.117 158.78ZM159.75 166.055L164.785 168.965C166.148 169.75 168.319 169.75 169.681 168.965C171.021 168.18 171.021 166.932 169.658 166.147L164.623 163.237C163.261 162.452 161.09 162.452 159.727 163.237C158.388 164.022 158.388 165.27 159.75 166.055ZM172.36 173.353L177.395 176.263C178.758 177.048 180.929 177.048 182.291 176.263C183.631 175.478 183.631 174.231 182.268 173.445L177.234 170.535C175.871 169.75 173.7 169.75 172.337 170.535C170.998 171.298 170.998 172.568 172.36 173.353ZM184.994 180.628L190.028 183.538C191.391 184.323 193.562 184.323 194.925 183.538C196.264 182.753 196.264 181.506 194.902 180.72L189.867 177.833C188.504 177.048 186.333 177.048 184.971 177.833C183.631 178.596 183.631 179.843 184.994 180.628ZM197.604 187.926L202.638 190.836C204.001 191.621 206.172 191.621 207.535 190.836C208.874 190.051 208.874 188.804 207.512 188.019L202.477 185.109C201.114 184.323 198.943 184.323 197.581 185.109C196.241 185.871 196.264 187.141 197.604 187.926ZM210.237 195.201L215.272 198.111C216.634 198.896 218.805 198.896 220.168 198.111C221.507 197.326 221.507 196.079 220.145 195.294L215.11 192.384C213.747 191.598 211.576 191.598 210.214 192.384C208.874 193.169 208.874 194.439 210.237 195.201ZM222.847 202.499L227.882 205.409C229.244 206.195 231.415 206.195 232.778 205.409C234.117 204.624 234.117 203.377 232.755 202.592L227.72 199.682C226.357 198.896 224.186 198.896 222.824 199.682C221.484 200.444 221.507 201.714 222.847 202.499ZM235.48 209.797L240.515 212.707C241.877 213.493 244.048 213.493 245.411 212.707C246.751 211.922 246.751 210.675 245.388 209.89L240.353 206.98C238.99 206.195 236.82 206.195 235.457 206.98C234.117 207.742 234.117 209.012 235.48 209.797ZM248.113 217.072L253.148 219.982C254.511 220.768 256.682 220.768 258.044 219.982C259.384 219.197 259.384 217.95 258.021 217.165L252.986 214.255C251.624 213.47 249.453 213.47 248.09 214.255C246.751 215.04 246.751 216.287 248.113 217.072ZM260.723 224.371L265.758 227.281C267.121 228.066 269.292 228.066 270.654 227.281C271.994 226.495 271.994 225.248 270.631 224.463L265.596 221.553C264.234 220.768 262.063 220.768 260.7 221.553C259.361 222.315 259.384 223.585 260.723 224.371ZM273.356 231.646L278.391 234.556C279.754 235.341 281.925 235.341 283.287 234.556C284.627 233.77 284.627 232.523 283.264 231.738L278.229 228.828C276.867 228.043 274.696 228.043 273.333 228.828C271.994 229.613 271.994 230.86 273.356 231.646ZM286.244 239.082L291.278 241.992C292.641 242.778 294.812 242.778 296.175 241.992C297.514 241.207 297.514 239.96 296.151 239.175L291.117 236.265C289.754 235.479 287.583 235.479 286.22 236.265C284.881 237.05 284.881 238.32 286.244 239.082ZM117.532 155.2L121.897 157.717C123.445 158.618 125.939 158.618 127.463 157.717L131.805 155.223C133.329 154.346 133.329 152.914 131.782 152.013L127.417 149.496C125.87 148.595 123.375 148.595 121.851 149.496L117.509 151.99C115.985 152.867 115.985 154.299 117.532 155.2ZM140.096 165.016L144.438 162.521C145.962 161.644 145.962 160.212 144.415 159.311L140.05 156.794C138.503 155.893 136.008 155.893 134.484 156.794L130.142 159.288C128.618 160.166 128.618 161.621 130.165 162.498L134.53 165.016C136.055 165.893 138.549 165.893 140.096 165.016ZM142.775 169.773L147.14 172.291C148.688 173.168 151.182 173.191 152.706 172.291L157.048 169.796C158.573 168.919 158.573 167.487 157.025 166.586L152.66 164.069C151.113 163.168 148.618 163.168 147.094 164.069L142.752 166.563C141.228 167.441 141.251 168.872 142.775 169.773ZM155.408 177.048L159.773 179.566C161.321 180.443 163.815 180.466 165.339 179.566L169.681 177.071C171.206 176.194 171.206 174.762 169.658 173.861L165.293 171.344C163.746 170.443 161.252 170.443 159.727 171.344L155.385 173.838C153.861 174.739 153.861 176.171 155.408 177.048ZM182.268 181.159L177.903 178.642C176.356 177.741 173.862 177.741 172.337 178.642L167.995 181.136C166.471 182.014 166.471 183.469 168.019 184.346L172.384 186.864C173.931 187.741 176.425 187.764 177.95 186.864L182.291 184.369C183.816 183.492 183.816 182.06 182.268 181.159ZM194.902 188.457L190.536 185.917C188.989 185.016 186.495 185.016 184.971 185.917L180.629 188.411C179.104 189.289 179.104 190.744 180.652 191.621L185.017 194.139C186.564 195.016 189.058 195.04 190.583 194.139L194.925 191.645C196.449 190.767 196.449 189.335 194.902 188.457ZM207.535 195.732L203.17 193.215C201.622 192.314 199.128 192.314 197.604 193.215L193.262 195.709C191.737 196.587 191.737 198.042 193.285 198.92L197.65 201.437C199.197 202.315 201.692 202.338 203.216 201.437L207.558 198.943C209.082 198.065 209.059 196.633 207.535 195.732ZM220.145 203.031L215.78 200.513C214.232 199.612 211.738 199.612 210.214 200.513L205.872 203.007C204.348 203.885 204.347 205.34 205.895 206.218L210.26 208.735C211.807 209.613 214.302 209.636 215.826 208.735L220.168 206.241C221.692 205.363 221.692 203.908 220.145 203.031ZM232.778 210.306L228.413 207.788C226.865 206.887 224.371 206.887 222.847 207.788L218.505 210.282C216.981 211.16 216.981 212.615 218.528 213.493L222.893 216.01C224.44 216.888 226.935 216.911 228.459 216.01L232.801 213.516C234.325 212.638 234.302 211.206 232.778 210.306ZM245.388 217.604L241.023 215.086C239.475 214.209 236.981 214.186 235.457 215.086L231.115 217.581C229.591 218.458 229.591 219.913 231.138 220.791L235.503 223.308C237.05 224.186 239.545 224.209 241.069 223.308L245.411 220.814C246.935 219.936 246.935 218.481 245.388 217.604ZM243.771 228.066L248.136 230.583C249.684 231.461 252.178 231.484 253.702 230.583L258.044 228.089C259.568 227.211 259.568 225.756 258.021 224.879L253.656 222.361C252.109 221.484 249.614 221.461 248.09 222.361L243.748 224.856C242.224 225.756 242.224 227.188 243.771 228.066ZM270.631 232.177L266.266 229.659C264.719 228.782 262.224 228.759 260.7 229.659L256.358 232.154C254.834 233.031 254.834 234.486 256.381 235.364L260.746 237.881C262.294 238.759 264.788 238.782 266.312 237.881L270.654 235.387C272.202 234.509 272.179 233.078 270.631 232.177ZM289.13 242.847L279.153 237.096C277.606 236.219 275.112 236.195 273.587 237.096L269.245 239.59C267.721 240.468 267.721 241.923 269.269 242.801L279.246 248.551C280.793 249.452 283.287 249.452 284.812 248.551L289.154 246.057C290.678 245.18 290.678 243.748 289.13 242.847ZM105.846 161.944L115.823 167.695C117.37 168.595 119.865 168.595 121.389 167.695L125.731 165.2C127.255 164.323 127.255 162.868 125.708 161.99L115.731 156.239C114.183 155.362 111.689 155.339 110.165 156.239L105.823 158.734C104.298 159.611 104.298 161.043 105.846 161.944ZM124.068 172.475L128.433 174.993C129.98 175.893 132.475 175.893 133.999 174.993L138.341 172.498C139.865 171.621 139.865 170.166 138.318 169.288L133.953 166.771C132.405 165.893 129.911 165.87 128.387 166.771L124.045 169.265C122.521 170.143 122.521 171.575 124.068 172.475ZM141.066 182.268C142.614 183.169 145.108 183.169 146.632 182.268L150.974 179.774C152.498 178.896 152.498 177.441 150.951 176.563L146.586 174.046C145.039 173.145 142.544 173.145 141.02 174.046L136.678 176.54C135.154 177.418 135.154 178.85 136.701 179.75L141.066 182.268ZM153.676 189.566C155.224 190.467 157.718 190.467 159.242 189.566L163.584 187.072C165.108 186.194 165.109 184.739 163.561 183.861L159.196 181.344C157.649 180.443 155.154 180.443 153.63 181.344L149.288 183.838C147.764 184.716 147.764 186.148 149.311 187.049L153.676 189.566ZM166.263 188.619L161.921 191.113C160.397 191.991 160.397 193.423 161.944 194.324L166.309 196.841C167.857 197.742 170.351 197.742 171.875 196.841L176.217 194.347C177.742 193.469 177.742 192.037 176.194 191.136L171.829 188.619C170.282 187.741 167.788 187.741 166.263 188.619ZM179.15 195.755L174.277 198.573C172.892 199.381 172.892 200.675 174.3 201.483L179.197 204.324C180.582 205.132 182.846 205.132 184.231 204.324L189.105 201.506C190.49 200.698 190.49 199.405 189.081 198.596L184.185 195.755C182.776 194.947 180.536 194.947 179.15 195.755ZM191.784 203.031L186.911 205.848C185.525 206.656 185.525 207.95 186.934 208.758L191.83 211.599C193.216 212.407 195.479 212.407 196.865 211.599L201.738 208.781C203.123 207.973 203.123 206.68 201.715 205.871L196.818 203.031C195.41 202.245 193.169 202.245 191.784 203.031ZM204.394 210.329L199.521 213.146C198.135 213.955 198.135 215.248 199.544 216.056L204.44 218.897C205.826 219.705 208.089 219.705 209.475 218.897L214.348 216.079C215.733 215.271 215.733 213.978 214.325 213.169L209.428 210.329C208.043 209.52 205.779 209.52 204.394 210.329ZM217.027 217.604L212.154 220.421C210.768 221.23 210.768 222.523 212.177 223.331L217.073 226.172C218.459 226.98 220.722 226.98 222.108 226.172L226.981 223.354C228.367 222.546 228.367 221.253 226.958 220.444L222.062 217.604C220.653 216.818 218.413 216.818 217.027 217.604ZM229.637 224.902L224.764 227.719C223.378 228.528 223.378 229.821 224.787 230.629L229.683 233.47C231.069 234.279 233.332 234.279 234.718 233.47L239.591 230.653C240.977 229.844 240.977 228.551 239.568 227.743L234.672 224.902C233.286 224.117 231.023 224.093 229.637 224.902ZM247.351 240.745L252.224 237.928C253.61 237.119 253.61 235.826 252.201 235.018L247.305 232.177C245.919 231.368 243.656 231.368 242.27 232.177L237.397 234.994C236.011 235.803 236.011 237.096 237.42 237.904L242.316 240.745C243.702 241.53 245.965 241.554 247.351 240.745ZM259.961 248.043L264.834 245.226C266.22 244.417 266.22 243.124 264.811 242.316L259.915 239.475C258.529 238.667 256.266 238.667 254.88 239.475L250.007 242.293C248.621 243.101 248.621 244.394 250.03 245.203L254.926 248.043C256.335 248.829 258.575 248.829 259.961 248.043ZM277.698 249.752L272.802 246.912C271.416 246.103 269.153 246.103 267.767 246.912L262.894 249.729C261.508 250.538 261.508 251.831 262.917 252.639L267.813 255.48C269.199 256.288 271.463 256.288 272.848 255.48L277.721 252.662C279.107 251.854 279.107 250.561 277.698 249.752ZM93.8825 168.549L109.703 177.695C111.089 178.503 113.352 178.503 114.738 177.695L119.611 174.877C120.996 174.069 120.996 172.776 119.588 171.967L103.767 162.822C102.382 162.013 100.118 162.013 98.7325 162.822L93.8594 165.639C92.4737 166.447 92.4967 167.741 93.8825 168.549ZM117.44 182.129L122.336 184.97C123.722 185.778 125.985 185.778 127.371 184.97L132.244 182.152C133.63 181.344 133.63 180.051 132.221 179.242L127.325 176.402C125.939 175.593 123.675 175.593 122.29 176.402L117.417 179.219C116.031 180.028 116.031 181.321 117.44 182.129ZM130.05 189.427L134.946 192.268C136.332 193.076 138.595 193.076 139.981 192.268L144.854 189.45C146.24 188.642 146.24 187.349 144.831 186.54L139.935 183.7C138.549 182.891 136.286 182.891 134.9 183.7L130.027 186.517C128.664 187.326 128.664 188.619 130.05 189.427ZM142.683 196.702L147.579 199.543C148.965 200.351 151.228 200.351 152.614 199.543L157.487 196.725C158.873 195.917 158.873 194.624 157.464 193.815L152.568 190.998C151.182 190.189 148.919 190.189 147.533 190.998L142.66 193.815C141.274 194.601 141.297 195.917 142.683 196.702ZM165.224 206.841L170.097 204.024C171.483 203.215 171.483 201.922 170.074 201.114L165.178 198.273C163.792 197.465 161.529 197.465 160.143 198.273L155.27 201.091C153.884 201.899 153.884 203.192 155.293 204.001L160.189 206.841C161.598 207.626 163.838 207.626 165.224 206.841ZM177.857 214.116L182.73 211.299C184.116 210.49 184.116 209.197 182.707 208.389L177.811 205.548C176.425 204.74 174.162 204.74 172.776 205.548L167.903 208.389C166.517 209.197 166.517 210.49 167.926 211.299L172.822 214.139C174.231 214.925 176.471 214.925 177.857 214.116ZM190.467 221.414L195.34 218.597C196.726 217.788 196.726 216.495 195.317 215.687L190.421 212.846C189.035 212.038 186.772 212.038 185.386 212.846L180.513 215.664C179.127 216.472 179.127 217.765 180.536 218.574L185.432 221.414C186.841 222.2 189.105 222.223 190.467 221.414ZM203.1 228.713L207.973 225.895C209.359 225.087 209.359 223.793 207.95 222.985L203.054 220.144C201.668 219.336 199.405 219.336 198.019 220.144L193.146 222.962C191.761 223.77 191.761 225.063 193.169 225.872L198.066 228.713C199.474 229.498 201.715 229.498 203.1 228.713ZM215.733 235.988L220.607 233.17C221.992 232.362 221.992 231.068 220.584 230.26L215.687 227.419C214.302 226.611 212.038 226.611 210.653 227.419L205.779 230.26C204.394 231.068 204.394 232.362 205.802 233.17L210.699 236.011C212.084 236.796 214.348 236.796 215.733 235.988ZM228.344 243.286L233.217 240.468C234.602 239.66 234.602 238.366 233.194 237.558L228.297 234.717C226.912 233.909 224.648 233.909 223.263 234.717L218.389 237.535C217.004 238.343 217.004 239.637 218.413 240.445L223.309 243.286C224.718 244.071 226.958 244.071 228.344 243.286ZM231.046 247.72L235.942 250.561C237.328 251.369 239.591 251.369 240.977 250.561L245.85 247.743C247.236 246.935 247.236 245.641 245.827 244.833L240.93 241.992C239.545 241.184 237.281 241.184 235.896 241.992L231.023 244.81C229.637 245.618 229.66 246.935 231.046 247.72ZM266.012 256.519L253.541 249.314C252.155 248.505 249.892 248.505 248.506 249.314L243.633 252.131C242.247 252.94 242.247 254.233 243.656 255.041L256.127 262.247C257.513 263.055 259.776 263.055 261.162 262.247L266.035 259.429C267.421 258.621 267.398 257.305 266.012 256.519ZM82.2424 175.639L104.691 188.596C106.262 189.497 108.802 189.52 110.373 188.596L114.599 186.148C116.169 185.247 116.146 183.769 114.576 182.868L92.1272 169.912C90.5567 169.011 88.0162 168.988 86.4458 169.912L82.2193 172.36C80.6488 173.261 80.6719 174.739 82.2424 175.639ZM113.075 193.446L117.324 195.894C118.895 196.795 121.435 196.818 123.006 195.894L127.232 193.446C128.803 192.545 128.78 191.067 127.209 190.166L122.96 187.718C121.389 186.818 118.849 186.794 117.278 187.718L113.052 190.166C111.481 191.067 111.504 192.522 113.075 193.446ZM125.685 200.721L129.934 203.169C131.505 204.07 134.045 204.093 135.616 203.169L139.842 200.721C141.413 199.82 141.39 198.342 139.819 197.441L135.57 195.016C133.999 194.116 131.459 194.093 129.888 195.016L125.662 197.465C124.114 198.342 124.114 199.82 125.685 200.721ZM138.318 208.019L142.567 210.467C144.138 211.368 146.678 211.391 148.249 210.467L152.475 208.019C154.046 207.118 154.023 205.64 152.452 204.74L148.203 202.315C146.632 201.414 144.092 201.391 142.521 202.315L138.295 204.763C136.747 205.64 136.747 207.118 138.318 208.019ZM150.951 215.294L155.201 217.742C156.771 218.643 159.312 218.666 160.882 217.742L165.109 215.294C166.679 214.393 166.656 212.915 165.085 212.015L160.836 209.566C159.265 208.666 156.725 208.643 155.154 209.566L150.928 212.015C149.357 212.938 149.381 214.393 150.951 215.294ZM163.561 222.592L167.811 225.04C169.381 225.941 171.922 225.964 173.492 225.04L177.719 222.592C179.289 221.692 179.266 220.213 177.695 219.313L173.446 216.888C171.875 215.987 169.335 215.964 167.764 216.888L163.538 219.336C161.991 220.213 161.991 221.692 163.561 222.592ZM176.194 229.89L180.444 232.338C182.014 233.239 184.555 233.262 186.125 232.338L190.352 229.89C191.922 228.99 191.899 227.512 190.329 226.611L186.079 224.163C184.509 223.262 181.968 223.239 180.398 224.163L176.171 226.611C174.601 227.512 174.624 228.967 176.194 229.89ZM188.804 237.165L193.054 239.614C194.624 240.514 197.165 240.537 198.735 239.614L202.962 237.165C204.532 236.265 204.509 234.787 202.939 233.886L198.689 231.438C197.119 230.537 194.578 230.514 193.008 231.438L188.781 233.886C187.234 234.787 187.234 236.265 188.804 237.165ZM201.437 244.464L205.687 246.912C207.257 247.812 209.798 247.835 211.368 246.912L215.595 244.464C217.165 243.563 217.142 242.085 215.572 241.184L211.322 238.736C209.752 237.835 207.211 237.812 205.641 238.736L201.414 241.184C199.844 242.085 199.867 243.54 201.437 244.464ZM214.048 251.739L218.297 254.187C219.868 255.087 222.408 255.11 223.979 254.187L228.205 251.739C229.775 250.838 229.752 249.36 228.182 248.459L223.932 246.011C222.362 245.11 219.821 245.087 218.251 246.011L214.024 248.459C212.477 249.36 212.477 250.838 214.048 251.739ZM226.681 259.037L230.93 261.485C232.501 262.386 235.041 262.409 236.612 261.485L240.838 259.037C242.409 258.136 242.386 256.658 240.815 255.757L236.566 253.309C234.995 252.408 232.455 252.385 230.884 253.309L226.658 255.757C225.11 256.658 225.11 258.136 226.681 259.037ZM253.725 263.24L249.476 260.792C247.905 259.891 245.365 259.868 243.794 260.792L239.568 263.24C237.997 264.141 238.021 265.619 239.591 266.52L243.841 268.968C245.411 269.868 247.952 269.892 249.522 268.968L253.748 266.52C255.296 265.596 255.296 264.141 253.725 263.24ZM90.2796 182.36L80.441 176.679C78.8705 175.778 76.33 175.755 74.7595 176.679L70.5331 179.127C68.9626 180.028 68.9857 181.506 70.5562 182.406L80.4179 188.088C81.9884 188.989 84.5289 189.012 86.0993 188.088L90.3258 185.64C91.8732 184.739 91.8501 183.284 90.2796 182.36ZM102.913 189.658L98.6632 187.21C97.0927 186.309 94.5522 186.286 92.9818 187.21L88.7553 189.658C87.1848 190.559 87.2079 192.037 88.7784 192.938L93.0279 195.386C94.5984 196.287 97.1389 196.31 98.7094 195.386L102.936 192.938C104.483 192.037 104.483 190.559 102.913 189.658ZM115.523 196.956L111.273 194.508C109.703 193.608 107.162 193.585 105.592 194.508L101.388 196.91C99.818 197.811 99.8411 199.289 101.412 200.19L105.661 202.638C107.232 203.539 109.772 203.562 111.343 202.638L115.569 200.19C117.116 199.312 117.093 197.857 115.523 196.956ZM203.886 247.974L123.906 201.783C122.336 200.883 119.795 200.86 118.225 201.783L113.999 204.231C112.428 205.132 112.451 206.61 114.022 207.511L194.001 253.702C195.571 254.602 198.112 254.626 199.682 253.702L203.909 251.254C205.479 250.33 205.456 248.875 203.886 247.974ZM216.519 255.249L212.269 252.801C210.699 251.9 208.158 251.877 206.588 252.801L202.361 255.249C200.791 256.15 200.814 257.628 202.384 258.529L206.634 260.977C208.204 261.877 210.745 261.901 212.315 260.977L216.542 258.529C218.089 257.628 218.089 256.15 216.519 255.249ZM229.129 262.547L224.879 260.099C223.309 259.198 220.768 259.175 219.198 260.099L214.971 262.547C213.401 263.448 213.424 264.926 214.994 265.827L219.244 268.275C220.814 269.176 223.355 269.199 224.925 268.275L229.152 265.827C230.722 264.926 230.722 263.448 229.129 262.547ZM242.016 269.984L237.766 267.536C236.196 266.635 233.655 266.612 232.085 267.536L227.859 269.984C226.288 270.885 226.311 272.363 227.882 273.263L232.131 275.712C233.702 276.612 236.242 276.635 237.813 275.712L242.039 273.263C243.61 272.363 243.586 270.885 242.016 269.984Z" fill="#ADA2E5"/>
<path d="M210.906 309.292L13.8105 195.432C6.18906 191.021 -0.000488281 179.219 -0.000488281 169.034V14.4107C-0.000488281 4.24876 6.18906 -0.439593 13.8105 3.97162L210.906 117.832C218.528 122.243 224.717 134.068 224.717 144.23V298.853C224.74 309.038 218.551 313.703 210.906 309.292Z" fill="#372F6B"/>
<path d="M214.832 115.753L17.7368 1.89318C14.7113 0.137929 11.9167 -0.185405 9.6534 0.692218C9.35316 0.807694 5.51933 2.84008 5.24219 3.00175C7.59791 1.87008 10.5772 2.07794 13.8337 3.94866L210.929 117.809C218.551 122.22 224.74 134.045 224.74 144.207V298.853C224.74 305.204 222.338 309.408 218.666 310.609C218.966 310.632 219.336 310.516 219.867 310.193C220.052 310.1 224.232 307.722 224.394 307.606C227.027 305.759 228.643 301.994 228.643 296.751V142.151C228.643 131.966 222.454 120.164 214.832 115.753Z" fill="#211B47"/>
</g>
<defs>
<clipPath id="clip0_101_889">
<rect width="373.267" height="321.533" fill="white" transform="translate(0 0.230347)"/>
</clipPath>
</defs>
</svg>
