<svg width="76" height="39" viewBox="0 0 76 39" fill="none" xmlns="http://www.w3.org/2000/svg">
<path d="M3.57494 38.7075C2.62857 38.7075 1.93271 38.6657 1.48736 38.5822C1.04201 38.4987 0.819336 38.4013 0.819336 38.29L1.65437 36.4738C1.97446 36.5294 2.76774 36.5851 4.03421 36.6408C5.31459 36.6825 7.06816 36.7034 9.29491 36.7034H9.69156C10.29 36.7034 10.7145 36.599 10.965 36.3903C11.2155 36.1676 11.3407 35.7988 11.3407 35.2838V34.8663C11.3407 34.3792 11.2364 34.0313 11.0276 33.8225C10.8328 33.6138 10.3874 33.5094 9.69156 33.5094H4.84837C3.44273 33.5094 2.41981 33.2519 1.77962 32.737C1.13943 32.2081 0.819336 31.3522 0.819336 30.1693V29.8353C0.819336 29.2229 0.930674 28.6592 1.15335 28.1443C1.38994 27.6294 1.78658 27.2188 2.34327 26.9126C2.89996 26.5925 3.6654 26.4325 4.63961 26.4325H10.3178C11.2642 26.4325 12.0296 26.4812 12.6142 26.5786C13.1987 26.676 13.491 26.7804 13.491 26.8918L13.0734 28.6453C12.7116 28.6036 11.8905 28.5618 10.6101 28.5201C9.32971 28.4644 7.61093 28.4366 5.45377 28.4366L5.22413 28.4157C4.58394 28.4157 4.15251 28.5479 3.92983 28.8123C3.70716 29.0628 3.58886 29.3829 3.57494 29.7726V30.1275C3.57494 30.5868 3.7002 30.9347 3.95071 31.1713C4.21513 31.394 4.64657 31.5053 5.24501 31.5053H9.87944C10.7701 31.5053 11.5286 31.5958 12.1549 31.7767C12.7812 31.9576 13.2613 32.2916 13.5953 32.7787C13.9293 33.2519 14.0964 33.9547 14.0964 34.8872V35.2212C14.0964 36.265 13.825 37.107 13.2822 37.7472C12.7533 38.3874 11.8278 38.7075 10.5057 38.7075H3.57494Z" fill="white"/>
<path d="M21.2121 38.7075L21.1912 28.4157H15.7635V26.4116H29.4163V28.4157H23.9677V38.7075H21.2121Z" fill="white"/>
<path d="M27.3332 38.7075L33.4499 26.4325H37.5624L43.6581 38.7075H40.4433L39.2116 36.0562H31.738L30.3811 38.7075H27.3332ZM32.4896 34.0104H38.4392L35.5792 28.3113H35.3704L32.4896 34.0104Z" fill="white"/>
<path d="M48.5367 38.7075C47.5486 38.7075 46.7762 38.5683 46.2195 38.29C45.6628 38.0116 45.2731 37.5941 45.0504 37.0374C44.8278 36.4807 44.7164 35.7918 44.7164 34.9707V30.3154C44.7164 28.9793 45.0156 27.9982 45.6141 27.3719C46.2125 26.7317 47.1867 26.4116 48.5367 26.4116H54.8203C55.7806 26.4116 56.5113 26.4673 57.0123 26.5786C57.5272 26.676 57.7847 26.7804 57.7847 26.8918L57.3672 28.6245C57.1306 28.5827 56.4278 28.541 55.2587 28.4992C54.1036 28.4435 52.4196 28.4157 50.2068 28.4157H49.1421C48.0287 28.4157 47.472 28.9098 47.472 29.8979V35.2212C47.472 35.6944 47.5903 36.0632 47.8269 36.3276C48.0774 36.5781 48.5158 36.7034 49.1421 36.7034H49.998C52.3083 36.7034 54.0966 36.6825 55.3631 36.6408C56.6435 36.5851 57.4368 36.5294 57.7429 36.4738L58.5988 37.8516C58.5988 37.9211 58.4805 38.0255 58.244 38.1647C58.0213 38.3039 57.6038 38.4291 56.9914 38.5405C56.379 38.6518 55.4953 38.7075 54.3402 38.7075H48.5367Z" fill="white"/>
<path d="M73.7731 38.9162C73.0912 38.9162 72.4997 38.7771 71.9987 38.4987C71.4976 38.2204 71.0036 37.8446 70.5165 37.3714C69.9876 36.8147 69.3474 36.1745 68.5959 35.4508C68.248 35.089 67.8931 34.7898 67.5312 34.5532C67.1694 34.3166 66.7588 34.1357 66.2996 34.0104C65.8542 33.8852 65.2975 33.8225 64.6295 33.8225H63.6483V38.7075H60.8927V28.1026L60.684 26.4325H63.6483V31.7767H64.8174C65.0957 31.7767 65.3254 31.7419 65.5063 31.6723C65.6872 31.6027 65.8542 31.4914 66.0073 31.3383C66.397 30.9486 66.8423 30.4615 67.3434 29.877C67.8444 29.2925 68.3315 28.694 68.8047 28.0817C69.2918 27.4554 69.7093 26.9057 70.0572 26.4325H73.4391L72.5832 27.685C72.1935 28.0886 71.776 28.527 71.3306 29.0002C70.8853 29.4734 70.4469 29.9396 70.0155 30.3989C69.584 30.8443 69.1943 31.2409 68.8464 31.5888C68.4985 31.9228 68.241 32.1664 68.074 32.3195C68.4498 32.4447 68.7907 32.6048 69.0969 32.7996C69.417 32.9945 69.8067 33.2798 70.266 33.6555C70.6139 33.9339 70.9479 34.2192 71.268 34.5114C71.602 34.8037 71.9847 35.1516 72.4162 35.5552C72.9033 36.0006 73.3625 36.3276 73.794 36.5364C74.2254 36.7451 74.5873 36.8774 74.8795 36.933C75.1857 36.9887 75.3805 37.0165 75.4641 37.0165L75.0465 38.7075C75.0048 38.7492 74.8795 38.791 74.6708 38.8327C74.462 38.8884 74.1628 38.9162 73.7731 38.9162Z" fill="white"/>
<path d="M1.24775 18.5879V3.3728L0.948242 0.97673H19.6376V3.85202H5.20128V8.22486H16.4029V11.19H5.20128V18.5879H1.24775Z" fill="white"/>
<path d="M22.6217 18.5879V0.97673H26.5753V18.5879H22.6217Z" fill="white"/>
<path d="M50.5058 18.8874C49.7071 18.8874 48.9184 18.7676 48.1397 18.528C47.3809 18.2684 46.5124 17.6494 45.534 16.671L43.3775 14.5146C42.4989 13.616 41.5305 12.9571 40.4723 12.5378C39.434 12.1185 38.1261 11.9088 36.5487 11.9088H35.6202V18.5879H31.6667V3.3728L31.3672 0.946777H44.6354C45.9133 0.946777 46.9117 1.1165 47.6305 1.45594C48.3693 1.79539 48.9084 2.24465 49.2479 2.80374C49.6073 3.34285 49.8369 3.92191 49.9368 4.54089C50.0366 5.15988 50.0865 5.74891 50.0865 6.308V6.87706C50.0865 7.31634 50.0266 7.80554 49.9068 8.34466C49.787 8.88378 49.5574 9.41291 49.2179 9.93206C48.8785 10.4512 48.3893 10.8905 47.7503 11.2499C47.1314 11.6093 46.3127 11.819 45.2944 11.8789C45.5539 12.0186 45.8834 12.2383 46.2827 12.5378C46.6821 12.8173 47.0914 13.1268 47.5107 13.4663C47.95 13.8057 48.3494 14.1152 48.7088 14.3948C49.0682 14.6743 49.3477 14.874 49.5474 14.9938C50.2662 15.4131 50.9052 15.7026 51.4643 15.8623C52.0233 16.0221 52.4826 16.1119 52.842 16.1319C53.2014 16.1519 53.4111 16.1619 53.471 16.1619L52.872 18.5879C52.6922 18.6478 52.3927 18.7077 51.9734 18.7676C51.5541 18.8475 51.0649 18.8874 50.5058 18.8874ZM40.1128 9.18329C40.8716 9.18329 41.5505 9.1733 42.1495 9.15334C42.7485 9.1134 43.2876 9.07347 43.7669 9.03353C44.6454 8.9337 45.2544 8.69409 45.5939 8.31471C45.9533 7.91536 46.133 7.4062 46.133 6.78721V6.09834C46.133 5.45939 45.9633 4.92027 45.6238 4.48099C45.2844 4.04171 44.6754 3.82207 43.7968 3.82207H35.6202V9.03353C36.4988 9.09343 37.3074 9.13337 38.0462 9.15334C38.785 9.1733 39.4739 9.18329 40.1128 9.18329Z" fill="white"/>
<path d="M61.3518 18.5879C59.9541 18.5879 58.8559 18.3882 58.0572 17.9889C57.2585 17.5895 56.6894 16.9905 56.35 16.1918C56.0305 15.3931 55.8708 14.4047 55.8708 13.2267V6.308C55.8708 5.14989 56.0305 4.18148 56.35 3.40276C56.6695 2.60406 57.2286 2.00504 58.0273 1.6057C58.8259 1.18639 59.9341 0.97673 61.3518 0.97673H70.0975C71.4952 0.97673 72.5834 1.18639 73.3621 1.6057C74.1608 2.00504 74.7199 2.60406 75.0394 3.40276C75.3788 4.18148 75.5486 5.14989 75.5486 6.308V13.2267C75.5486 14.9838 75.1592 16.3216 74.3805 17.2401C73.6017 18.1386 72.1741 18.5879 70.0975 18.5879H61.3518ZM62.2204 15.7126H69.2589C69.9976 15.7126 70.5667 15.5229 70.9661 15.1435C71.3854 14.7641 71.595 14.245 71.595 13.5861V5.94859C71.595 5.36953 71.3854 4.88033 70.9661 4.48099C70.5467 4.06168 69.9777 3.85202 69.2589 3.85202H62.2204C61.5016 3.85202 60.9225 4.04171 60.4832 4.42109C60.044 4.80047 59.8243 5.30963 59.8243 5.94859V13.5861C59.8243 14.265 60.034 14.7941 60.4533 15.1735C60.8926 15.5329 61.4816 15.7126 62.2204 15.7126Z" fill="white"/>
</svg>
